<?xml version="1.0" standalone="no"?>
<!DOCTYPE svg PUBLIC "-//W3C//DTD SVG 20010904//EN"
 "http://www.w3.org/TR/2001/REC-SVG-20010904/DTD/svg10.dtd">
<svg version="1.0" xmlns="http://www.w3.org/2000/svg"
 width="959.000000pt" height="242.000000pt" viewBox="0 0 959.000000 242.000000"
 preserveAspectRatio="xMidYMid meet">

<g transform="translate(0.000000,242.000000) scale(0.100000,-0.100000)"
fill="#000000" stroke="none">
<path d="M1060 1675 c0 -14 5 -25 10 -25 6 0 10 11 10 25 0 14 -4 25 -10 25
-5 0 -10 -11 -10 -25z"/>
<path d="M1000 1666 c0 -16 24 -38 33 -30 8 9 -11 44 -23 44 -6 0 -10 -6 -10
-14z"/>
<path d="M1111 1661 c-6 -10 -7 -21 -4 -25 9 -8 33 14 33 30 0 20 -18 17 -29
-5z"/>
<path d="M955 1631 c-6 -11 33 -36 42 -27 7 7 -16 36 -28 36 -4 0 -10 -4 -14
-9z"/>
<path d="M1150 1625 c-7 -9 -10 -18 -7 -21 9 -9 48 16 42 27 -9 13 -21 11 -35
-6z"/>
<path d="M1042 1588 c-7 -7 -12 -25 -12 -40 0 -26 3 -28 40 -28 37 0 40 2 40
28 0 31 -16 52 -40 52 -9 0 -21 -5 -28 -12z"/>
<path d="M2825 1581 c-54 -25 -92 -62 -115 -113 -18 -40 -20 -69 -20 -403 0
-227 4 -374 11 -399 16 -56 92 -129 151 -144 30 -8 138 -12 292 -12 l246 0 0
29 0 30 -264 3 c-291 3 -289 3 -340 72 -20 27 -21 39 -21 411 0 372 1 384 21
411 51 69 49 69 337 74 l262 5 3 28 3 27 -263 0 c-234 0 -267 -2 -303 -19z"/>
<path d="M4800 1409 c0 -179 -1 -191 -17 -183 -10 5 -94 9 -188 9 -167 0 -171
0 -217 -27 -32 -20 -52 -41 -68 -72 -20 -42 -21 -56 -18 -274 l3 -229 27 -41
c49 -74 63 -77 313 -77 l220 0 3 543 2 542 -30 0 -30 0 0 -191z m-10 -249 c7
-12 9 -118 8 -302 l-3 -283 -186 0 c-173 0 -189 2 -209 20 -44 39 -50 72 -50
280 0 301 4 305 262 305 156 0 168 -1 178 -20z"/>
<path d="M6008 1251 l-258 -349 0 -59 c0 -95 -8 -93 288 -93 l251 0 3 -117 3
-118 33 -3 32 -3 0 120 0 121 65 0 65 0 0 29 c0 34 -14 41 -81 41 l-49 0 0
390 0 390 -47 0 -48 -1 -257 -348z m282 -86 l0 -345 -235 0 -235 0 0 36 c0 31
30 76 231 345 127 170 233 309 235 309 2 0 4 -155 4 -345z"/>
<path d="M6765 1581 c-54 -25 -92 -62 -115 -113 -18 -40 -20 -69 -20 -413 0
-338 2 -373 19 -411 24 -53 91 -109 146 -123 26 -7 144 -11 290 -11 l246 0 -3
28 -3 27 -262 5 c-288 5 -286 5 -337 74 -20 27 -21 39 -21 411 0 372 1 384 21
411 51 69 49 69 337 74 l262 5 3 28 3 27 -263 0 c-234 0 -267 -2 -303 -19z"/>
<path d="M943 1568 c2 -7 12 -13 22 -13 10 0 20 6 23 13 2 7 -6 12 -23 12 -17
0 -25 -5 -22 -12z"/>
<path d="M1152 1568 c7 -20 48 -23 48 -4 0 11 -9 16 -26 16 -16 0 -24 -5 -22
-12z"/>
<path d="M480 1075 l0 -415 70 0 c49 0 79 5 96 16 32 21 96 21 128 0 22 -14
65 -16 331 -16 l305 0 0 415 0 415 -465 0 -465 0 0 -415z m565 216 c161 -75
199 -286 74 -410 -107 -105 -286 -93 -373 26 -70 95 -70 210 -2 304 66 90 202
126 301 80z"/>
<path d="M855 1261 c-59 -27 -102 -75 -120 -133 -8 -29 -15 -59 -15 -68 0 -42
33 -122 63 -151 143 -143 379 -49 379 151 0 160 -163 267 -307 201z m139 -37
c3 -9 6 -38 6 -65 l0 -49 60 0 60 0 0 -50 0 -50 -60 0 -59 0 -3 -62 -3 -63
-50 0 -50 0 -3 63 -3 62 -59 0 -60 0 0 50 0 50 60 0 60 0 0 58 c0 32 3 62 7
65 3 4 25 7 49 7 29 0 44 -5 48 -16z"/>
<path d="M920 1145 l0 -65 -60 0 c-53 0 -60 -2 -60 -20 0 -16 8 -19 58 -22
l57 -3 3 -62 c3 -59 4 -63 27 -63 24 0 25 3 25 65 l0 65 60 0 c53 0 60 2 60
20 0 18 -7 20 -60 20 l-60 0 0 65 c0 63 -1 65 -25 65 -24 0 -25 -2 -25 -65z"/>
<path d="M1440 1010 l0 -350 125 0 c96 0 133 4 157 16 39 20 92 20 123 0 17
-11 47 -16 100 -16 l75 0 0 133 c0 72 -4 138 -8 144 -6 9 -70 13 -242 15
l-235 3 0 185 0 185 98 3 c72 2 97 6 94 15 -2 8 -45 13 -145 15 l-142 3 0
-351z"/>
<path d="M1560 1140 l0 -160 210 0 c173 0 210 2 203 13 -4 8 -54 80 -111 160
l-104 147 -99 0 -99 0 0 -160z"/>
<path d="M3693 1240 c-56 -13 -97 -44 -120 -90 -22 -42 -23 -55 -23 -278 0
-209 2 -237 19 -270 43 -85 89 -102 268 -102 160 0 201 13 249 76 l29 37 3
241 c3 204 1 247 -13 283 -20 52 -64 88 -125 102 -51 12 -239 13 -287 1z m333
-92 l34 -38 0 -230 c0 -321 1 -320 -225 -320 -225 0 -225 0 -225 324 l0 224
27 32 c14 18 36 36 47 41 12 5 85 7 164 6 l144 -2 34 -37z"/>
<path d="M5166 1229 c-52 -12 -90 -42 -110 -83 -13 -28 -16 -73 -16 -271 0
-269 4 -287 73 -333 40 -27 41 -27 264 -30 l223 -3 0 30 0 31 -201 0 c-284 0
-299 9 -299 187 l0 98 257 0 258 0 -1 130 c0 151 -10 179 -76 223 -40 26 -47
27 -187 29 -80 1 -163 -2 -185 -8z m323 -63 c50 -26 61 -55 61 -161 l0 -95
-225 0 -225 0 0 93 c0 99 14 137 62 163 34 19 290 19 327 0z"/>
<path d="M7492 938 c3 -296 4 -304 26 -340 13 -20 40 -47 60 -60 35 -22 47
-23 203 -23 160 0 167 1 203 25 21 14 47 43 59 65 21 38 22 54 25 338 l3 297
-30 0 -30 0 -3 -293 c-3 -259 -5 -296 -21 -320 -33 -51 -64 -59 -222 -55 -136
3 -145 4 -169 27 -14 14 -30 41 -36 60 -5 20 -10 159 -10 309 l0 272 -31 0
-30 0 3 -302z"/>
<path d="M8250 875 l0 -365 30 0 30 0 0 295 c0 321 3 339 55 363 15 7 71 12
130 12 l105 0 0 31 0 32 -108 -5 c-73 -3 -118 -10 -141 -21 -42 -21 -41 -21
-41 3 0 16 -7 20 -30 20 l-30 0 0 -365z"/>
<path d="M8904 1231 c-53 -14 -94 -44 -114 -86 -18 -38 -20 -63 -20 -271 0
-219 1 -232 23 -274 39 -78 64 -84 325 -88 l223 -3 -3 28 -3 28 -217 5 -218 5
-32 33 c-33 32 -33 34 -36 140 l-4 107 259 0 258 0 3 108 c3 117 -7 170 -39
211 -40 51 -72 60 -229 63 -80 1 -159 -2 -176 -6z m316 -66 c51 -26 60 -50 60
-157 l0 -98 -222 2 -223 3 0 97 c0 89 2 98 25 123 37 40 53 44 198 44 99 1
140 -3 162 -14z"/>
<path d="M643 636 c-22 -19 -28 -32 -28 -64 0 -46 33 -90 69 -94 12 -1 -57 -5
-152 -8 -104 -3 -172 -9 -172 -15 0 -14 1829 -14 1833 0 1 6 -70 12 -193 15
-119 3 -186 8 -172 13 26 10 52 55 52 91 0 13 -12 38 -26 55 -21 26 -33 31
-69 31 -36 0 -48 -5 -69 -31 -42 -50 -32 -114 22 -143 24 -14 -29 -15 -498
-15 -455 0 -521 2 -493 14 38 16 53 42 53 88 0 78 -95 116 -157 63z m102 -32
c23 -23 15 -66 -14 -81 -29 -14 -55 -4 -71 28 -26 47 46 92 85 53z m1081 -9
c30 -47 -10 -94 -64 -74 -30 11 -39 54 -17 79 25 28 61 25 81 -5z"/>
<path d="M690 571 c0 -15 6 -21 21 -21 14 0 19 5 17 17 -5 26 -38 29 -38 4z"/>
<path d="M1765 580 c-4 -7 -3 -16 3 -22 14 -14 45 -2 40 15 -6 16 -34 21 -43
7z"/>
</g>
</svg>
