<?xml version="1.0" standalone="no"?>
<!DOCTYPE svg PUBLIC "-//W3C//DTD SVG 20010904//EN"
 "http://www.w3.org/TR/2001/REC-SVG-20010904/DTD/svg10.dtd">
<svg version="1.0" xmlns="http://www.w3.org/2000/svg"
 width="739.000000pt" height="217.000000pt" viewBox="0 0 739.000000 217.000000"
 preserveAspectRatio="xMidYMid meet">

<g transform="translate(0.000000,217.000000) scale(0.100000,-0.100000)"
fill="#000000" stroke="none">
<path d="M0 1085 l0 -1085 3695 0 3695 0 0 1085 0 1085 -3695 0 -3695 0 0
-1085z m1254 434 c176 -122 329 -229 339 -238 21 -21 13 -51 -14 -51 -10 0
-141 85 -291 188 -150 103 -294 202 -319 220 l-47 31 -313 -216 c-173 -119
-324 -218 -336 -221 -31 -6 -42 24 -17 48 28 27 655 460 666 460 6 0 155 -100
332 -221z m1172 10 c24 -6 47 -16 50 -21 3 -5 -2 -39 -12 -74 -17 -56 -22 -64
-39 -59 -131 37 -237 -11 -264 -119 -16 -64 -14 -165 5 -219 16 -48 56 -88
100 -101 30 -9 102 -10 150 -2 l40 7 19 -63 c10 -35 19 -67 19 -73 2 -15 -83
-33 -160 -34 -202 -3 -332 107 -365 307 -33 209 68 400 241 453 39 11 166 10
216 -2z m2918 -5 c26 -9 45 -21 43 -28 -2 -6 -12 -37 -21 -69 l-17 -58 -32 8
c-57 14 -141 8 -177 -13 -54 -31 -84 -100 -85 -193 0 -100 10 -143 42 -182 45
-54 106 -67 241 -56 21 2 26 -6 43 -58 10 -33 17 -65 15 -72 -7 -19 -115 -36
-198 -31 -60 4 -91 11 -142 37 -122 60 -176 155 -184 323 -7 164 43 282 152
356 27 17 62 36 80 41 53 15 188 12 240 -5z m-721 -43 l27 -11 -100 -200 -100
-200 55 0 55 0 0 80 0 80 85 0 85 0 0 -80 0 -80 35 0 36 0 -3 -72 -3 -73 -32
-3 -32 -3 -3 -67 -3 -67 -82 -3 -83 -3 0 71 0 70 -165 0 c-144 0 -165 2 -174
17 -7 13 24 83 135 304 l143 287 48 -18 c26 -10 60 -23 76 -29z m-1063 -325
l0 -363 -46 -7 c-89 -12 -243 -7 -282 10 -89 37 -142 131 -142 253 0 127 40
209 124 254 32 17 58 22 124 22 l82 0 0 33 c0 31 -1 32 -46 32 -25 0 -44 4
-42 8 2 5 17 34 33 65 l30 57 83 0 82 0 0 -364z m-663 153 c88 -42 128 -135
121 -277 -9 -172 -89 -252 -253 -252 -115 0 -180 36 -228 125 -19 34 -22 56
-22 150 0 98 3 116 25 159 30 58 74 95 138 113 62 17 163 9 219 -18z m1120 8
c64 -34 101 -100 114 -201 14 -112 22 -106 -157 -106 l-154 0 0 -24 c0 -43 30
-68 83 -68 38 -1 53 4 75 25 l28 27 54 -18 c30 -10 55 -23 57 -29 7 -19 -62
-96 -106 -120 -34 -18 -60 -23 -115 -23 -120 1 -186 46 -221 151 -24 72 -17
227 13 285 25 49 82 101 120 110 15 3 32 8 37 10 21 8 145 -5 172 -19z m2368
-52 l0 -70 -50 -5 c-62 -7 -93 -24 -105 -56 -6 -14 -10 -99 -10 -190 l0 -164
-80 0 -80 0 0 210 0 210 -40 0 c-22 0 -40 2 -40 5 0 3 14 32 30 65 l30 60 90
0 c76 0 90 -2 90 -16 0 -12 4 -14 13 -7 23 19 72 32 112 30 l40 -2 0 -70z
m394 46 c66 -34 111 -140 111 -263 l0 -38 -161 0 -161 0 6 -32 c9 -46 27 -60
80 -60 38 -1 52 4 76 27 l29 28 52 -19 c29 -10 54 -24 56 -30 7 -21 -62 -99
-107 -121 -58 -30 -166 -31 -226 -4 -80 36 -124 127 -124 256 0 139 55 240
148 270 62 20 167 13 221 -14z m-1149 -151 c0 -222 8 -239 113 -240 l37 0 0
205 0 205 80 0 80 0 0 -260 0 -259 -42 -13 c-25 -8 -95 -13 -168 -13 -143 0
-174 11 -222 80 -37 53 -48 124 -48 313 l0 152 85 0 85 0 0 -170z m-4562 28
l3 -107 107 -3 107 -3 3 -119 c2 -78 -1 -123 -9 -132 -8 -10 -38 -14 -110 -14
l-99 0 0 -99 c0 -72 -4 -102 -14 -110 -9 -8 -52 -11 -127 -9 l-114 3 -3 108
-3 107 -97 0 c-53 0 -103 4 -110 8 -9 7 -12 40 -10 133 l3 124 108 3 107 3 0
103 c0 56 3 106 7 110 4 3 61 5 127 4 l121 -3 3 -107z"/>
<path d="M3323 1189 c-63 -18 -96 -102 -74 -186 16 -57 41 -76 111 -81 l60 -4
0 135 c0 131 -1 135 -22 141 -28 7 -35 7 -75 -5z"/>
<path d="M2723 1190 c-69 -29 -75 -238 -8 -264 35 -13 95 -6 115 14 27 27 33
58 28 140 -3 54 -8 75 -24 90 -23 24 -79 34 -111 20z"/>
<path d="M3845 1175 c-39 -38 -32 -45 50 -45 82 0 94 11 55 50 -28 28 -75 26
-105 -5z"/>
<path d="M6603 1185 c-11 -8 -23 -24 -26 -35 -5 -19 -1 -20 69 -20 67 0 74 2
74 19 0 43 -74 66 -117 36z"/>
<path d="M870 1141 c0 -49 -3 -96 -6 -105 -5 -13 -25 -16 -110 -16 l-104 0 0
-75 0 -75 104 0 c85 0 105 -3 110 -16 3 -9 6 -56 6 -105 l0 -89 70 0 69 0 3
103 3 102 108 3 107 3 0 74 0 74 -107 3 -108 3 -3 103 -3 102 -69 0 -70 0 0
-89z"/>
</g>
</svg>
