<?xml version="1.0" standalone="no"?>
<!DOCTYPE svg PUBLIC "-//W3C//DTD SVG 20010904//EN"
 "http://www.w3.org/TR/2001/REC-SVG-20010904/DTD/svg10.dtd">
<svg version="1.0" xmlns="http://www.w3.org/2000/svg"
 width="669.000000pt" height="183.000000pt" viewBox="0 0 669.000000 183.000000"
 preserveAspectRatio="xMidYMid meet">

<g transform="translate(0.000000,183.000000) scale(0.100000,-0.100000)"
fill="#000000" stroke="none">
<path d="M569 1299 c-184 -127 -342 -239 -352 -248 -23 -23 -12 -54 17 -49 12
3 169 107 350 231 l329 227 76 -53 c372 -260 594 -408 609 -405 10 2 17 12 17
25 0 18 -55 60 -270 209 -368 255 -426 294 -434 294 -4 0 -158 -104 -342 -231z"/>
<path d="M1960 1030 l0 -350 70 0 70 0 0 242 c0 133 3 238 7 234 4 -4 44 -111
89 -239 l81 -232 59 -3 59 -3 85 246 85 245 3 -245 2 -245 70 0 70 0 0 350 0
350 -105 0 -104 0 -78 -240 c-42 -132 -79 -240 -83 -240 -3 0 -41 107 -85 238
l-80 237 -107 3 -108 3 0 -351z"/>
<path d="M3360 1030 l0 -352 198 4 c193 3 198 4 255 31 67 33 117 92 144 170
24 71 24 223 0 294 -24 70 -88 140 -157 171 -51 24 -67 26 -247 30 l-193 4 0
-352z m355 201 c57 -26 91 -70 105 -138 13 -60 7 -150 -11 -187 -39 -74 -84
-96 -204 -96 l-95 0 0 220 0 220 83 0 c58 0 94 -6 122 -19z"/>
<path d="M5278 1258 l-3 -73 -42 -3 -43 -3 0 -45 0 -44 45 0 45 0 0 -171 c0
-98 4 -179 10 -190 21 -38 92 -57 193 -51 26 2 27 5 27 52 l0 50 -40 0 c-29 0
-42 5 -50 19 -5 11 -10 81 -10 155 l0 136 50 0 50 0 0 45 0 45 -50 0 -50 0 0
75 0 75 -65 0 -64 0 -3 -72z"/>
<path d="M4240 1184 c-103 -28 -169 -110 -178 -221 -10 -125 38 -222 134 -269
49 -24 63 -26 138 -22 66 3 92 9 128 30 161 95 157 371 -8 460 -63 34 -142 42
-214 22z m148 -110 c36 -25 52 -67 52 -141 0 -113 -38 -163 -125 -163 -78 0
-117 53 -117 160 0 73 17 118 54 144 29 21 107 21 136 0z"/>
<path d="M4848 1189 c-52 -12 -111 -53 -142 -97 -74 -108 -56 -290 36 -367 50
-42 90 -55 170 -55 111 1 174 36 219 122 10 21 19 46 19 58 0 18 -6 20 -65 20
-59 0 -65 -2 -65 -21 0 -11 -13 -34 -29 -50 -24 -23 -38 -29 -73 -29 -80 0
-119 51 -119 153 0 113 39 167 122 167 41 0 51 -4 73 -31 14 -17 26 -35 26
-40 0 -5 29 -9 65 -9 72 0 76 5 51 63 -17 40 -61 82 -106 100 -47 20 -137 27
-182 16z"/>
<path d="M5750 1184 c-107 -29 -171 -112 -178 -231 -11 -170 88 -283 248 -283
36 0 80 4 99 10 93 26 160 115 168 224 16 200 -145 333 -337 280z m149 -110
c33 -24 51 -74 51 -146 0 -108 -40 -158 -125 -158 -78 0 -117 53 -117 159 -1
73 17 119 54 145 29 21 107 20 137 0z"/>
<path d="M6445 1191 c-46 -11 -71 -28 -104 -68 l-31 -38 0 48 0 47 -65 0 -65
0 0 -250 0 -250 70 0 70 0 0 138 c0 114 4 144 20 180 22 49 64 72 130 72 l41
0 -3 62 c-3 68 -8 72 -63 59z"/>
<path d="M2809 1103 c16 -43 56 -150 90 -238 34 -88 61 -172 61 -187 0 -16 -9
-37 -21 -49 -18 -18 -28 -20 -65 -14 l-44 6 0 -55 0 -55 45 -7 c52 -7 131 9
159 34 10 9 26 33 36 52 16 33 220 574 220 585 0 3 -31 5 -68 5 l-69 0 -53
-170 c-30 -94 -57 -167 -61 -163 -4 5 -31 81 -60 171 l-54 162 -72 0 -72 0 28
-77z"/>
<path d="M796 1054 c-3 -9 -6 -60 -6 -115 l0 -99 -109 0 c-90 0 -110 -3 -115
-16 -8 -20 -8 -218 0 -238 5 -13 25 -16 115 -16 l109 0 0 -103 c0 -67 4 -107
12 -115 8 -8 52 -12 130 -12 118 0 119 0 128 26 6 14 10 65 10 114 l0 89 108
3 107 3 0 130 0 130 -107 3 -108 3 0 95 c0 138 4 134 -144 134 -104 0 -125 -3
-130 -16z m214 -159 l5 -110 108 -3 107 -3 0 -74 0 -74 -107 -3 -108 -3 -5
-110 -5 -110 -77 -3 -78 -3 0 110 c0 90 -3 110 -16 115 -9 3 -60 6 -115 6
l-99 0 0 75 0 75 99 0 c55 0 106 3 115 6 13 5 16 25 16 115 l0 110 78 -3 77
-3 5 -110z"/>
</g>
</svg>
