<?xml version="1.0" standalone="no"?>
<!DOCTYPE svg PUBLIC "-//W3C//DTD SVG 20010904//EN"
 "http://www.w3.org/TR/2001/REC-SVG-20010904/DTD/svg10.dtd">
<svg version="1.0" xmlns="http://www.w3.org/2000/svg"
 width="477.000000pt" height="341.000000pt" viewBox="0 0 477.000000 341.000000"
 preserveAspectRatio="xMidYMid meet">

<g transform="translate(0.000000,341.000000) scale(0.100000,-0.100000)"
fill="#000000" stroke="none">
<path d="M1974 2945 c-7 -30 2 -75 16 -75 5 0 12 11 16 25 7 30 -2 75 -16 75
-5 0 -12 -11 -16 -25z"/>
<path d="M1853 2914 c-7 -19 27 -68 52 -72 15 -3 17 1 11 25 -8 29 -33 63 -48
63 -5 0 -11 -7 -15 -16z"/>
<path d="M2081 2904 c-24 -30 -28 -64 -8 -64 21 0 59 46 55 66 -5 28 -24 27
-47 -2z"/>
<path d="M1773 2843 c-32 -12 8 -63 49 -63 25 0 22 22 -5 48 -25 23 -25 23
-44 15z"/>
<path d="M2160 2830 c-25 -25 -26 -50 -1 -50 29 0 65 34 58 53 -9 23 -33 21
-57 -3z"/>
<path d="M1953 2758 c-37 -18 -58 -109 -31 -136 18 -18 123 -15 138 3 18 22 6
92 -21 121 -24 26 -50 29 -86 12z"/>
<path d="M1743 2714 c-6 -17 12 -34 37 -34 25 0 43 17 37 34 -4 10 -18 16 -37
16 -19 0 -33 -6 -37 -16z"/>
<path d="M2160 2720 c-13 -9 -12 -13 9 -30 25 -22 48 -25 71 -10 12 7 12 13 4
27 -13 21 -62 28 -84 13z"/>
<path d="M810 1719 l0 -832 138 5 c120 4 145 8 199 31 85 37 162 37 246 0 l62
-28 608 -3 607 -3 0 830 0 831 -930 0 -930 0 0 -831z m1139 425 c104 -51 185
-133 237 -239 l39 -80 0 -135 0 -135 -39 -80 c-112 -229 -366 -339 -602 -260
-124 42 -192 95 -265 208 -151 234 -78 552 158 689 113 66 162 78 297 73 90
-3 105 -6 175 -41z"/>
<path d="M1629 2116 c-76 -22 -168 -77 -216 -130 -57 -64 -88 -131 -110 -232
l-16 -80 26 -85 c48 -152 112 -231 239 -295 209 -106 476 -9 581 213 30 64 32
74 32 183 0 109 -2 119 -32 183 -92 194 -306 297 -504 243z m192 -85 c22 -17
24 -28 27 -130 l4 -111 119 0 119 0 0 -100 0 -100 -119 0 -119 0 -7 -125 -7
-125 -98 0 -98 0 -7 125 -7 125 -119 0 -119 0 0 100 0 100 120 0 120 0 0 89
c0 158 7 169 111 170 42 1 63 -4 80 -18z"/>
<path d="M1700 1971 c-5 -11 -10 -69 -10 -130 l0 -111 -101 0 c-107 0 -139 -9
-139 -40 0 -29 28 -39 132 -46 l95 -7 7 -105 c8 -123 16 -142 56 -142 42 0 50
23 50 149 l0 111 101 0 c107 0 139 9 139 40 0 31 -32 40 -139 40 l-101 0 0
111 c0 126 -8 149 -50 149 -19 0 -33 -7 -40 -19z"/>
<path d="M2730 1589 l0 -701 248 4 c236 5 250 6 321 31 98 35 161 35 237 0 54
-25 72 -27 208 -31 l149 -5 -5 276 c-2 152 -6 279 -9 281 -15 16 -187 26 -551
32 l-408 7 0 367 0 367 171 7 c94 4 183 12 198 17 24 10 24 11 8 21 -21 11
-274 27 -449 28 l-118 0 0 -701z"/>
<path d="M2970 1849 l0 -320 403 3 c221 2 408 7 415 11 14 9 -9 44 -272 415
l-150 212 -198 0 -198 0 0 -321z"/>
<path d="M1200 879 c-43 -18 -92 -61 -106 -95 -38 -91 12 -219 97 -250 l34
-12 -56 -1 c-91 -1 -458 -20 -529 -27 -58 -6 -62 -8 -40 -17 34 -15 3561 -15
3605 0 28 9 24 10 -40 16 -38 4 -182 11 -320 17 -137 6 -269 13 -292 16 l-43
5 33 34 c19 19 42 59 52 89 23 67 13 112 -40 173 -42 49 -89 67 -157 61 -57
-6 -91 -28 -131 -85 -55 -78 -42 -185 29 -240 25 -19 32 -29 24 -37 -16 -16
-1954 -16 -1970 0 -8 8 -2 17 24 32 89 53 100 213 20 284 -48 42 -137 59 -194
37z m137 -102 c41 -37 39 -101 -7 -147 -29 -29 -99 -28 -127 3 -47 52 -54 90
-22 131 37 47 112 54 156 13z m2131 17 c28 -19 52 -65 52 -99 0 -86 -112 -124
-176 -60 -76 76 36 221 124 159z"/>
<path d="M1242 738 c-27 -27 -6 -68 34 -68 39 0 41 50 3 70 -22 12 -23 12 -37
-2z"/>
<path d="M3393 743 c-18 -7 -16 -48 2 -63 16 -14 48 -6 66 17 11 13 10 18 -10
34 -23 19 -35 22 -58 12z"/>
</g>
</svg>
